<?xml version="1.0" encoding="UTF-8"?> <svg xmlns="http://www.w3.org/2000/svg" width="141.78" height="33.55" viewBox="0 0 141.78 33.55"> <defs> <style> .a { fill: #ef3340; } .b { fill: #b00c2f; } .c { stroke: #000; stroke-miterlimit: 10; stroke-width: 0.45px; } .d { fill: #e6e7e8; } .e { fill: #f1f1f2; } </style> </defs> <title>Ресурс 7</title> <g> <g> <polygon class="a" points="13.02 5.12 13.18 5.12 13.18 4.65 13.78 4.05 13.78 3.95 13.65 3.95 13.06 4.54 12.6 4.54 12.6 4.7 13.02 4.7 13.02 5.12"></polygon> <polygon class="b" points="9.4 3.95 9.28 3.95 9.28 4.05 9.88 4.65 9.88 5.12 10.04 5.12 10.04 4.7 10.46 4.7 10.46 4.54 9.99 4.54 9.4 3.95"></polygon> <path class="b" d="M20.15,13.84a2.26,2.26,0,0,1,0-3.21L22,8.78a3.67,3.67,0,0,0,0-5.17L20.15,1.77a3.53,3.53,0,0,0-5-.21L14.06,2.69,12.8,4h1v1L15,3.67l1.13-1.13a2.15,2.15,0,0,1,3,.21L21,4.59A2.26,2.26,0,0,1,21,7.8L19.17,9.65a3.65,3.65,0,0,0,0,5.17L21,16.66a2.26,2.26,0,0,1,0,3.21l-1.84,1.84A2.21,2.21,0,0,1,16,21.8l-3.53-3.54h0l-1,1,3.53,3.54a3.61,3.61,0,0,0,5.09-.09L22,20.85a3.67,3.67,0,0,0,0-5.17Zm-6-10.25a.22.22,0,1,1,0-.31A.23.23,0,0,1,14.17,3.59ZM9.27,9.44l-1.4,1.4a2.13,2.13,0,0,0,.21,3l3.45,3.45h0l-1,1h0L7.1,14.82a3.53,3.53,0,0,1-.21-5L9.27,7.48l1,1,1.29,1.29-1,1"></path> <path class="a" d="M16.16,9.86l-1.39-1.4h0l-1-1-1,1h0l-2.26,2.26,1,1,2.26-2.26,1.4,1.4a2.14,2.14,0,0,1-.21,3l-8,8a2.21,2.21,0,0,1-3.13-.09L2.05,19.87a2.26,2.26,0,0,1,0-3.21l1.84-1.84a3.67,3.67,0,0,0,0-5.17L2.05,7.8a2.26,2.26,0,0,1,0-3.21L3.89,2.75a2.13,2.13,0,0,1,3-.21L8,3.67,9.28,4.93V4h1L9,2.69,7.87,1.56a3.53,3.53,0,0,0-5,.21L1.07,3.61a3.65,3.65,0,0,0,0,5.17l1.84,1.85a2.26,2.26,0,0,1,0,3.21L1.07,15.68a3.65,3.65,0,0,0,0,5.17l1.84,1.84A3.61,3.61,0,0,0,8,22.78l3.53-3.54,1-1L16,14.82A3.52,3.52,0,0,0,16.16,9.86ZM8.89,3.28a.22.22,0,1,1,0,.31A.21.21,0,0,1,8.89,3.28Z"></path> </g> <g> <path class="c" d="M1.09,32.27V26.08H5.15v6.19H4.62V26.51h-3v5.76Z"></path> <path class="c" d="M6.68,32.27V26.08H7.2v5.24l3.1-5.24h.46v6.19h-.52V27L7.15,32.27Z"></path> <path class="c" d="M12.29,32.27V26.08h.46l2,4.24,2-4.24h.45v6.19h-.48V27.19l-1.85,3.89h-.31l-1.83-3.86v5.05Z"></path> <path class="c" d="M18.63,26.08l1.77,3.81L22,26.08h.53l-2.32,5.41a1.28,1.28,0,0,1-1.29.84h-.26v-.5H19a.84.84,0,0,0,.81-.47l.39-.91L18.1,26.08Z"></path> </g> <g> <path d="M35.43,8.4V1.74H39.8V8.4h-.56V2.2H36V8.4Z"></path> <path d="M41.12,3.35h.54v.57a1.89,1.89,0,0,1,1.46-.63c1,0,1.64.56,1.64,1.37V7.1a1.45,1.45,0,0,1-1.64,1.37,1.89,1.89,0,0,1-1.46-.63V10.3h-.54ZM44.24,7.1V4.66c0-.54-.53-.93-1.27-.93s-1.28.38-1.31.92V7.07c0,.56.55,1,1.31,1S44.24,7.63,44.24,7.1Z"></path> <path d="M49.15,4.25,46.35,8.4H45.9V3.35h.54V7.51l2.79-4.16h.44V8.4h-.52Z"></path> <path d="M50.9,3.35h1.61c1.1,0,1.79.5,1.79,1.22v.19a1.13,1.13,0,0,1-.79,1,1.22,1.22,0,0,1,1,1.14v.2c0,.75-.69,1.26-1.79,1.26H50.9Zm1.6.44H51.43V5.61H52.5c.8,0,1.27-.33,1.27-.82V4.61C53.77,4.12,53.3,3.79,52.5,3.79Zm.2,2.26H51.43V8H52.7C53.5,8,54,7.62,54,7.11V6.9C54,6.39,53.5,6.05,52.7,6.05Z"></path> <path d="M57.22,8.47c-1.09,0-1.85-.6-1.85-1.47V4.75c0-.86.76-1.46,1.85-1.46s1.86.6,1.86,1.46V7C59.08,7.87,58.31,8.47,57.22,8.47Zm1.33-3.75c0-.59-.56-1-1.33-1s-1.33.4-1.33,1V7c0,.59.55,1,1.33,1s1.33-.41,1.33-1Z"></path> <path d="M59.51,8c.63,0,1-.44,1-4V3.35h3.15V8.4h-.52V3.79H61V4c0,3.86-.37,4.44-1.44,4.44h-.15V8Z"></path> <path d="M66.52,5.78,64.43,3.35H65l2.06,2.43L64.86,8.4h-.59Zm.71-2.43h.51V8.4h-.51Zm.64,2.43,2.07-2.43h.59L68.44,5.78,70.68,8.4h-.59Z"></path> <path d="M74.33,4.72c0-.59-.54-1-1.33-1s-1.33.4-1.33,1V7c0,.59.55,1,1.33,1s1.33-.41,1.33-1V6.71h.53V7c0,.87-.77,1.47-1.86,1.47S71.15,7.87,71.15,7V4.75c0-.86.76-1.46,1.85-1.46s1.86.6,1.86,1.46V5h-.53Z"></path> <path d="M75.9,3.35h.53V8.4H75.9Zm.69,2.43,2.14-2.43h.62L77.2,5.78,79.52,8.4h-.63Z"></path> <path d="M83.42,4.25,80.62,8.4h-.45V3.35h.53V7.51l2.79-4.16h.45V8.4h-.52Z"></path> <path d="M88.42,4.25,85.62,8.4h-.45V3.35h.53V7.51l2.79-4.16h.45V8.4h-.52Zm-.08-2.61v.15c0,.55-.52,1-1.28,1s-1.28-.4-1.28-1V1.64h.43v.2c0,.3.35.54.85.54s.85-.24.85-.54v-.2Z"></path> <path d="M38.58,15.67l-2.8,4.15h-.44v-5h.53v4.15l2.79-4.15h.45v5h-.53Z"></path> <path d="M43.43,16.15c0-.59-.54-1-1.32-1s-1.34.41-1.34,1v2.3c0,.59.55,1,1.34,1s1.32-.41,1.32-1v-.31H44v.28c0,.87-.77,1.47-1.85,1.47s-1.86-.6-1.86-1.47V16.18c0-.87.76-1.47,1.86-1.47s1.85.6,1.85,1.47v.28h-.53Z"></path> <path d="M48.09,16.15c0-.59-.54-1-1.32-1s-1.33.41-1.33,1v2.3c0,.59.55,1,1.33,1s1.32-.41,1.32-1v-.31h.54v.28c0,.87-.78,1.47-1.86,1.47s-1.86-.6-1.86-1.47V16.18c0-.87.76-1.47,1.86-1.47s1.86.6,1.86,1.47v.28h-.54Z"></path> <path d="M49.21,19.4c.63,0,.95-.43.95-4v-.62h3.15v5h-.52V15.21H50.65v.19c0,3.86-.37,4.44-1.44,4.44h-.15V19.4Z"></path> <path d="M54.46,16.18c0-.87.76-1.47,1.86-1.47s1.85.6,1.85,1.47V17.5H55v.95c0,.59.56,1,1.34,1s1.32-.41,1.32-1v-.2h.53v.17c0,.87-.77,1.47-1.85,1.47s-1.86-.6-1.86-1.47Zm.52,0v.91h2.66v-.91c0-.59-.54-1-1.32-1S55,15.56,55,16.15Z"></path> <path d="M58.45,19.38h.45c.51-.33.63-.71.63-4v-.62h3.13v4.6h.69v1.75h-.53V19.82H59v1.31h-.53Zm1.1,0h2.58V15.21H60v.19C60,18,59.94,18.92,59.55,19.38Z"></path> <path d="M65.69,19.89c-1.09,0-1.85-.6-1.85-1.47V16.18c0-.87.76-1.47,1.85-1.47s1.86.6,1.86,1.47v2.24C67.55,19.29,66.78,19.89,65.69,19.89ZM67,16.15c0-.59-.55-1-1.33-1s-1.33.41-1.33,1v2.3c0,.59.55,1,1.33,1S67,19,67,18.45Z"></path> <path d="M68.68,14.78h1.61c1.11,0,1.79.49,1.79,1.22v.19a1.11,1.11,0,0,1-.79,1,1.23,1.23,0,0,1,1,1.15v.2c0,.74-.68,1.25-1.79,1.25H68.68Zm1.6.43H69.22V17h1.06c.8,0,1.27-.33,1.27-.82V16C71.55,15.55,71.08,15.21,70.28,15.21Zm.2,2.26H69.22v1.91h1.26c.8,0,1.27-.34,1.27-.85v-.2C71.75,17.81,71.28,17.47,70.48,17.47Z"></path> <path d="M73.17,16.42v-.24c0-.87.73-1.47,1.78-1.47a1.57,1.57,0,0,1,1.77,1.47v3.64h-.53v-.59a2.08,2.08,0,0,1-1.55.66c-1,0-1.56-.51-1.56-1.28v-.29c0-.79.73-1.25,1.79-1.31L76.19,17v-.8c0-.59-.52-1-1.24-1s-1.26.41-1.26,1v.27Zm3,1-1.31.06c-.83.05-1.27.36-1.27.84v.32c0,.5.46.84,1.18.84s1.4-.41,1.4-1Z"></path> <path d="M77.25,14.78h4v.43H79.49v4.61H79V15.21h-1.7Z"></path> <path d="M81.78,16.18c0-.87.76-1.47,1.86-1.47s1.85.6,1.85,1.47V17.5H82.3v.95c0,.59.56,1,1.34,1S85,19,85,18.45v-.2h.53v.17c0,.87-.77,1.47-1.85,1.47s-1.86-.6-1.86-1.47Zm.52,0v.91H85v-.91c0-.59-.54-1-1.32-1S82.3,15.56,82.3,16.15Z"></path> <path d="M85.86,19.4c.64,0,1-.43,1-4v-.62H90v5h-.53V15.21H87.31v.19c0,3.86-.37,4.44-1.45,4.44h-.14V19.4Z"></path> <path d="M91.2,14.78h.54v2H93c1.08,0,1.79.57,1.79,1.43v.23c0,.87-.71,1.43-1.79,1.43H91.2Zm.54,2.39v2.21H93c.78,0,1.26-.37,1.26-1v-.29c0-.58-.48-1-1.26-1Z"></path> <path d="M98.63,16.15c0-.59-.54-1-1.32-1s-1.34.41-1.34,1v2.3c0,.59.56,1,1.34,1s1.32-.41,1.32-1v-.31h.53v.28c0,.87-.77,1.47-1.85,1.47s-1.86-.6-1.86-1.47V16.18c0-.87.76-1.47,1.86-1.47s1.85.6,1.85,1.47v.28h-.53Z"></path> <path d="M100.2,14.78h.53v5h-.53Zm.7,2.42L103,14.78h.63L101.5,17.2l2.32,2.62h-.63Z"></path> <path d="M107.72,15.67l-2.8,4.15h-.45v-5H105v4.15l2.79-4.15h.44v5h-.52Z"></path> <path d="M112.72,15.67l-2.8,4.15h-.45v-5H110v4.15l2.78-4.15h.45v5h-.52Zm-.08-2.61v.16c0,.55-.52.94-1.27.94s-1.29-.39-1.29-.94v-.16h.43v.2c0,.31.35.55.86.55s.84-.24.84-.55v-.2Z"></path> <path d="M35.34,26.2h.45l2,3.59,2-3.59h.45v5.05h-.49v-4l-1.78,3.29h-.27l-1.78-3.29v4h-.49Z"></path> <path d="M41.3,27.6c0-.87.76-1.47,1.85-1.47S45,26.73,45,27.6v1.32H41.82v.95c0,.6.55,1,1.33,1s1.33-.4,1.33-1v-.2H45v.18c0,.86-.77,1.46-1.86,1.46s-1.85-.6-1.85-1.46Zm.52,0v.91h2.66v-.91c0-.59-.55-1-1.33-1S41.82,27,41.82,27.57Z"></path> <path d="M45.28,30.81h.45c.52-.34.64-.72.64-4V26.2h3.12v4.61h.7v1.74h-.54v-1.3H45.82v1.3h-.54Zm1.11,0H49V26.64h-2.1v.19C46.87,29.4,46.78,30.34,46.39,30.81Z"></path> <path d="M54.13,27.09l-2.8,4.16h-.45V26.2h.53v4.15L54.2,26.2h.45v5.05h-.52Z"></path> <path d="M55.88,26.2h.53v4.61H59V26.2h.53v4.61h.88v1.74h-.53v-1.3h-4Z"></path> <path d="M64.24,27.09l-2.8,4.16H61V26.2h.53v4.15l2.79-4.15h.45v5.05h-.52Z"></path> <path d="M69.1,28.87H66.52v2.38H66V26.2h.53v2.23H69.1V26.2h.53v5.05H69.1Z"></path> <path d="M74,27.57c0-.59-.55-1-1.33-1s-1.33.41-1.33,1v2.3c0,.6.55,1,1.33,1s1.33-.4,1.33-1v-.31h.53v.29c0,.86-.77,1.46-1.86,1.46s-1.85-.6-1.85-1.46V27.6c0-.87.76-1.47,1.85-1.47s1.86.6,1.86,1.47v.28H74Z"></path> <path d="M75.53,26.2h.53v5.05h-.53Zm.69,2.43,2.13-2.43H79l-2.15,2.43,2.31,2.62h-.62Z"></path> <path d="M83.05,27.09l-2.8,4.16H79.8V26.2h.53v4.15l2.79-4.15h.45v5.05h-.52Z"></path> <path d="M88,27.09l-2.79,4.16H84.8V26.2h.53v4.15l2.79-4.15h.45v5.05H88ZM88,24.49v.15c0,.55-.53.94-1.28.94s-1.28-.39-1.28-.94v-.15h.43v.2c0,.3.35.54.85.54s.85-.24.85-.54v-.2Z"></path> <path d="M92.64,33.15h-.51l.71-1.89L91,26.2h.52l1.57,4.38,1.67-4.38h.52Z"></path> <path d="M99.07,28.87H96.49v2.38H96V26.2h.54v2.23h2.58V26.2h.52v5.05h-.52Z"></path> <path d="M104.07,27.09l-2.79,4.16h-.45V26.2h.53v4.15l2.79-4.15h.45v5.05h-.53Z"></path> <path d="M105.82,26.2h1.61c1.11,0,1.79.49,1.79,1.22v.19a1.12,1.12,0,0,1-.79,1,1.22,1.22,0,0,1,1,1.14V30c0,.74-.68,1.26-1.79,1.26h-1.81Zm1.6.44h-1.06v1.82h1.06c.8,0,1.27-.34,1.27-.82v-.18C108.69,27,108.22,26.64,107.42,26.64Zm.2,2.25h-1.26v1.92h1.26c.8,0,1.27-.34,1.27-.86v-.2C108.89,29.24,108.42,28.89,107.62,28.89Z"></path> <path d="M110.29,27.6c0-.87.76-1.47,1.86-1.47s1.85.6,1.85,1.47v1.32h-3.19v.95c0,.6.56,1,1.34,1s1.32-.4,1.32-1v-.2H114v.18c0,.86-.77,1.46-1.85,1.46s-1.86-.6-1.86-1.46Zm.52,0v.91h2.66v-.91c0-.59-.54-1-1.32-1S110.81,27,110.81,27.57Z"></path> <path d="M115.08,26.2h.53v.56a2,2,0,0,1,1.47-.63,1.44,1.44,0,0,1,1.63,1.37v2.44a1.44,1.44,0,0,1-1.63,1.37,1.88,1.88,0,0,1-1.47-.63v2.47h-.53Zm3.11,3.74V27.5c0-.53-.52-.93-1.27-.93s-1.28.38-1.31.92v2.42c0,.56.55,1,1.31,1S118.19,30.47,118.19,29.94Z"></path> <path d="M123,27.57c0-.59-.54-1-1.32-1s-1.34.41-1.34,1v2.3c0,.6.56,1,1.34,1s1.32-.4,1.32-1v-.31h.53v.29c0,.86-.77,1.46-1.85,1.46s-1.86-.6-1.86-1.46V27.6c0-.87.76-1.47,1.86-1.47s1.85.6,1.85,1.47v.28H123Z"></path> <path d="M127.77,27.09,125,31.25h-.45V26.2h.53v4.15l2.79-4.15h.45v5.05h-.52Z"></path> <path d="M129.07,26.2h4v.44h-1.71v4.61h-.54V26.64h-1.7Z"></path> <path d="M133.6,27.6c0-.87.76-1.47,1.86-1.47s1.85.6,1.85,1.47v1.32h-3.18v.95c0,.6.55,1,1.33,1s1.32-.4,1.32-1v-.2h.53v.18c0,.86-.77,1.46-1.85,1.46s-1.86-.6-1.86-1.46Zm.53,0v.91h2.65v-.91c0-.59-.54-1-1.32-1S134.13,27,134.13,27.57Z"></path> <path d="M137.75,26.2h3.95v.44H140v4.61h-.53V26.64h-1.71Z"></path> </g> <rect class="d" x="27.92" width="1.58" height="33.55"></rect> <rect class="e" x="92.54" y="1.78" width="49.2" height="6.88"></rect> <rect class="e" x="117.14" y="13.31" width="24.65" height="6.78"></rect> </g> </svg> 